<?xml version="1.0" encoding="UTF-8" standalone="no"?>
<!DOCTYPE svg PUBLIC "-//W3C//DTD SVG 1.1//EN" "http://www.w3.org/Graphics/SVG/1.1/DTD/svg11.dtd">
<svg xmlns="http://www.w3.org/2000/svg" version="1.1" viewBox="0.00 0.00 1106.00 226.00">
<path fill="#e32527" d="
  M 122.68 22.77
  C 123.65 23.60 125.01 24.14 125.65 24.85
  C 128.15 27.60 131.05 29.50 133.79 31.94
  Q 140.34 37.78 147.03 43.46
  Q 148.98 45.11 149.86 46.01
  Q 150.47 46.62 149.61 46.72
  C 148.18 46.89 146.61 46.36 145.48 46.32
  Q 138.07 46.02 130.73 47.04
  C 129.03 47.28 128.00 48.24 126.40 48.47
  Q 124.20 48.78 121.22 49.96
  C 105.84 56.08 92.37 67.00 85.26 81.96
  Q 75.11 103.30 85.04 125.99
  Q 86.21 128.67 87.25 129.92
  C 87.77 130.55 88.04 131.36 88.15 132.06
  A 0.77 0.77 0.0 0 1 87.02 132.85
  C 62.98 119.65 52.33 93.06 59.48 66.71
  C 60.16 64.21 61.69 61.28 62.37 58.30
  Q 62.44 57.97 62.62 57.75
  Q 62.75 57.59 62.90 57.45
  Q 63.06 57.30 63.14 57.12
  C 69.32 42.84 84.23 29.37 98.78 24.09
  Q 100.47 23.47 102.12 22.76
  C 106.61 20.82 111.79 20.42 116.62 20.82
  C 118.10 20.95 121.57 21.82 122.68 22.77
  Z"
/>
<path fill="#030303" d="
  M 1083.9175 32.0050
  A 8.39 8.07 -1.4 0 1 1075.7272 40.2776
  A 8.39 8.07 -1.4 0 1 1067.1425 32.4150
  A 8.39 8.07 -1.4 0 1 1075.3328 24.1424
  A 8.39 8.07 -1.4 0 1 1083.9175 32.0050
  Z
  M 1081.8626 34.2065
  A 6.65 6.51 17.2 0 0 1077.4351 26.0211
  A 6.65 6.51 17.2 0 0 1069.1574 30.2735
  A 6.65 6.51 17.2 0 0 1073.5849 38.4589
  A 6.65 6.51 17.2 0 0 1081.8626 34.2065
  Z"
/>
<path fill="#030303" d="
  M 1075.13 33.37
  Q 1072.66 32.49 1073.70 35.70
  A 0.78 0.78 0.0 0 1 1073.00 36.72
  L 1072.52 36.75
  A 0.73 0.72 88.2 0 1 1071.75 36.02
  L 1071.74 28.52
  Q 1071.74 27.82 1072.43 27.70
  Q 1075.35 27.23 1077.91 28.55
  A 1.87 1.87 0.0 0 1 1078.39 31.51
  L 1077.34 32.59
  A 0.68 0.67 48.1 0 0 1077.30 33.48
  L 1078.98 35.61
  A 0.68 0.68 0.0 0 1 1078.60 36.69
  L 1078.15 36.80
  A 1.17 1.15 -20.0 0 1 1076.86 36.21
  L 1075.57 33.76
  A 0.81 0.78 -2.6 0 0 1075.13 33.37
  Z
  M 1076.9594 30.4364
  A 1.83 1.06 -8.6 0 0 1074.9915 29.6619
  A 1.83 1.06 -8.6 0 0 1073.3406 30.9836
  A 1.83 1.06 -8.6 0 0 1075.3085 31.7581
  A 1.83 1.06 -8.6 0 0 1076.9594 30.4364
  Z"
/>
<path fill="#666666" d="
  M 537.70 99.67
  A 0.49 0.48 19.8 0 0 538.50 99.30
  Q 538.58 84.53 538.48 69.98
  Q 538.46 67.41 537.98 65.58
  C 536.16 58.62 531.50 59.54 526.10 61.36
  Q 525.17 61.67 524.96 60.71
  L 524.56 58.87
  Q 524.36 57.98 525.21 57.65
  Q 537.20 52.96 549.62 47.87
  Q 550.55 47.49 553.82 47.83
  Q 554.29 47.88 554.29 48.35
  Q 554.28 103.54 554.29 158.73
  C 554.30 167.59 555.91 175.29 566.88 170.83
  Q 567.59 170.54 567.86 171.25
  L 568.65 173.34
  Q 568.89 173.98 568.26 174.22
  Q 556.62 178.71 544.73 183.73
  C 542.78 184.55 541.13 184.45 539.13 184.40
  Q 538.51 184.39 538.51 183.77
  L 538.53 172.75
  A 0.55 0.54 -25.6 0 0 537.56 172.41
  Q 527.75 184.58 511.51 184.46
  Q 510.76 184.46 509.32 184.01
  C 508.24 183.68 507.25 183.83 506.25 183.57
  C 491.65 179.86 481.47 166.38 479.00 152.04
  C 478.29 147.90 478.41 143.08 478.42 138.46
  C 478.44 126.23 485.36 112.29 493.38 103.88
  C 503.67 93.11 520.37 88.94 533.80 96.41
  C 535.26 97.22 536.42 98.62 537.70 99.67
  Z
  M 496.56 145.64
  C 498.30 154.61 501.11 162.00 507.97 168.29
  Q 516.82 176.39 527.44 173.20
  Q 533.00 171.53 538.19 165.70
  Q 538.50 165.35 538.50 164.88
  Q 538.60 144.13 538.52 123.39
  C 538.49 117.75 537.43 112.96 534.84 108.42
  C 529.62 99.27 517.48 95.26 508.64 102.11
  C 502.72 106.70 498.83 113.19 497.49 119.92
  C 497.04 122.15 496.22 124.60 496.31 126.87
  C 496.39 128.81 495.73 130.86 495.71 132.42
  C 495.69 134.94 495.51 137.61 496.03 140.09
  C 496.42 141.95 496.25 144.06 496.56 145.64
  Z"
/>
<path fill="#666666" d="
  M 1005.77 102.02
  Q 1005.64 132.94 1005.77 163.86
  C 1005.77 164.92 1006.42 165.69 1006.42 166.76
  Q 1006.46 174.87 1013.12 177.55
  C 1016.41 178.88 1021.14 178.38 1024.93 178.37
  Q 1025.30 178.37 1025.30 178.74
  L 1025.32 181.33
  Q 1025.32 181.73 1024.92 181.73
  L 974.49 181.73
  Q 974.00 181.73 974.00 181.24
  L 974.03 178.78
  Q 974.04 178.29 974.53 178.35
  C 980.03 179.03 986.51 177.08 988.87 171.75
  Q 989.88 169.49 989.89 164.11
  Q 989.98 133.05 989.91 101.98
  Q 989.91 101.53 989.46 101.53
  L 973.76 101.52
  Q 973.25 101.52 973.27 101.01
  L 973.44 95.68
  Q 973.46 95.07 974.07 95.07
  L 989.27 95.07
  A 0.76 0.75 86.9 0 0 990.02 94.23
  C 989.71 91.40 990.63 89.07 990.58 86.62
  C 990.16 68.22 1001.29 51.54 1019.76 48.33
  C 1029.47 46.65 1037.99 48.79 1045.42 55.08
  C 1050.42 59.32 1052.02 65.94 1045.81 70.18
  C 1038.69 75.05 1032.48 64.04 1029.27 59.73
  C 1023.53 52.03 1012.03 52.38 1008.07 61.70
  Q 1006.13 66.28 1006.47 71.24
  C 1006.56 72.68 1005.83 73.85 1005.81 75.13
  Q 1005.65 84.88 1005.77 94.63
  Q 1005.77 95.10 1006.25 95.10
  L 1027.27 95.02
  Q 1027.77 95.02 1027.78 95.52
  L 1027.83 101.16
  Q 1027.84 101.53 1027.47 101.53
  L 1006.27 101.52
  Q 1005.77 101.52 1005.77 102.02
  Z"
/>
<path fill="#666666" d="
  M 243.28 74.53
  Q 243.21 116.17 243.28 158.31
  C 243.28 159.19 243.85 160.25 243.81 161.00
  C 243.53 165.53 243.72 173.26 247.78 175.82
  C 252.33 178.69 256.17 178.35 261.25 178.41
  Q 261.80 178.42 261.80 178.97
  L 261.78 181.22
  Q 261.78 181.72 261.28 181.72
  L 217.47 181.72
  A 0.60 0.60 0.0 0 1 216.87 181.10
  L 216.95 178.97
  Q 216.97 178.37 217.57 178.38
  C 223.74 178.41 228.93 178.77 233.41 173.16
  C 234.70 171.55 235.09 165.78 235.10 162.88
  Q 235.23 119.44 235.10 76.00
  C 235.08 71.19 235.26 66.54 232.57 62.74
  C 229.11 57.86 223.18 56.97 217.49 57.30
  Q 216.94 57.33 216.94 56.77
  L 216.94 54.27
  Q 216.94 53.73 217.48 53.73
  L 253.05 53.71
  Q 253.50 53.71 253.69 54.12
  L 299.30 153.23
  A 0.35 0.34 -45.2 0 0 299.93 153.22
  L 344.51 55.10
  Q 345.14 53.70 346.67 53.70
  L 381.00 53.74
  Q 381.51 53.74 381.51 54.25
  L 381.50 56.55
  Q 381.50 57.15 380.90 57.14
  C 367.95 57.06 362.44 60.45 363.57 74.38
  C 363.66 75.52 362.99 76.17 362.98 77.17
  Q 362.93 116.28 362.97 155.38
  Q 362.97 157.07 363.34 160.09
  C 364.24 167.52 362.18 173.73 370.51 177.43
  Q 374.33 179.13 380.95 178.26
  Q 381.51 178.19 381.51 178.75
  L 381.52 181.23
  Q 381.52 181.73 381.02 181.73
  L 327.22 181.72
  Q 326.72 181.72 326.72 181.22
  L 326.71 178.77
  Q 326.70 178.38 327.10 178.38
  C 332.78 178.42 340.05 178.76 343.32 172.86
  C 344.44 170.84 344.98 166.67 344.98 164.23
  Q 345.01 119.71 344.99 75.69
  Q 344.99 74.06 344.31 75.55
  L 296.46 180.76
  A 2.20 2.20 0.0 0 1 292.46 180.76
  L 243.82 74.41
  Q 243.28 73.23 243.28 74.53
  Z"
/>
<path fill="#089a49" d="
  M 181.55 144.78
  Q 179.33 147.33 176.99 149.58
  Q 176.08 150.46 176.38 149.23
  C 178.39 140.97 176.19 129.96 173.19 122.10
  C 166.89 105.59 153.48 90.22 136.41 84.32
  C 135.74 84.08 134.96 83.18 134.51 83.12
  C 130.68 82.60 126.92 81.03 123.41 80.76
  Q 118.28 80.35 113.15 80.69
  C 109.58 80.92 105.86 82.50 101.97 83.02
  Q 101.50 83.08 101.07 83.28
  L 89.60 88.64
  Q 89.22 88.82 89.27 88.40
  C 89.85 83.40 97.29 76.03 100.91 72.67
  Q 108.82 65.35 121.08 61.08
  Q 122.62 60.55 127.05 59.79
  C 129.91 59.31 132.24 58.03 135.06 58.02
  C 138.64 58.00 145.95 57.16 148.92 59.10
  Q 149.34 59.37 149.84 59.42
  Q 155.52 59.97 157.76 60.78
  Q 188.20 71.70 200.31 102.02
  C 203.55 110.13 204.57 118.08 198.57 125.09
  Q 190.11 134.98 181.55 144.78
  Z"
/>
<path fill="#666666" d="
  M 1045.44 101.53
  L 1032.75 101.52
  Q 1032.22 101.52 1032.12 101.00
  Q 1031.97 100.20 1032.12 99.41
  A 1.12 1.12 0.0 0 1 1032.76 98.60
  Q 1038.95 95.64 1043.67 90.64
  Q 1045.84 88.34 1047.87 85.89
  Q 1054.94 77.37 1058.37 66.84
  Q 1058.53 66.35 1059.04 66.36
  L 1060.71 66.39
  Q 1061.27 66.41 1061.27 66.96
  L 1061.26 94.81
  Q 1061.26 95.12 1061.57 95.12
  L 1081.24 95.01
  Q 1081.72 95.00 1081.73 95.49
  L 1081.77 101.00
  Q 1081.78 101.53 1081.25 101.53
  L 1061.77 101.52
  Q 1061.26 101.52 1061.26 102.03
  Q 1061.27 128.22 1061.26 154.25
  Q 1061.25 155.27 1061.52 158.74
  C 1061.83 162.69 1061.47 167.01 1064.61 170.05
  C 1070.06 175.35 1077.61 170.72 1080.33 164.84
  A 0.47 0.46 11.2 0 1 1080.74 164.57
  L 1083.73 164.50
  A 0.19 0.19 0.0 0 1 1083.92 164.75
  Q 1082.34 169.10 1080.62 171.87
  C 1074.88 181.16 1062.52 187.48 1052.67 179.83
  Q 1046.64 175.15 1046.41 166.70
  Q 1046.40 166.20 1046.21 165.75
  Q 1045.93 165.06 1045.94 164.00
  Q 1046.04 147.91 1045.89 101.97
  Q 1045.88 101.53 1045.44 101.53
  Z"
/>
<path fill="#f9b11e" d="
  M 62.54 163.48
  Q 45.78 157.28 34.88 143.70
  C 27.67 134.73 18.46 119.28 21.40 107.32
  C 22.69 102.07 27.63 97.25 31.41 93.16
  Q 37.15 86.93 42.63 80.47
  C 43.42 79.53 44.87 78.52 45.62 77.11
  Q 46.08 76.24 46.93 76.00
  Q 47.57 75.82 47.41 76.47
  C 45.66 83.32 46.65 88.98 48.18 95.94
  C 53.35 119.49 72.01 138.90 95.45 144.12
  C 97.38 144.55 100.42 144.99 102.67 145.27
  C 106.95 145.81 109.50 144.93 112.94 144.52
  C 120.18 143.67 127.99 140.51 134.02 136.99
  Q 135.45 136.15 134.61 137.58
  C 133.58 139.35 132.78 141.47 131.64 143.09
  Q 121.17 157.82 104.01 164.04
  C 103.34 164.28 102.82 164.82 102.01 164.98
  Q 96.68 166.01 91.37 167.11
  Q 86.60 168.09 76.29 167.15
  C 75.65 167.09 75.22 166.64 74.76 166.62
  C 72.05 166.51 69.78 165.71 66.80 165.27
  C 65.07 165.02 63.89 163.98 62.54 163.48
  Z"
/>
<path fill="#236db4" d="
  M 146.31 98.30
  C 150.84 101.10 155.27 107.30 158.05 111.72
  Q 160.23 115.17 162.20 120.21
  Q 164.84 126.96 165.01 129.26
  Q 165.22 132.15 165.89 134.97
  C 166.62 138.02 166.53 140.36 166.52 143.32
  C 166.51 146.19 165.40 148.91 165.18 151.95
  Q 165.07 153.53 164.42 155.43
  C 163.87 157.04 163.90 158.59 163.23 160.12
  C 161.96 163.00 161.14 166.31 159.71 168.87
  C 150.09 186.00 135.46 197.14 116.63 203.03
  C 113.49 204.02 108.27 204.40 105.18 203.21
  C 102.48 202.16 100.30 201.31 98.01 199.36
  Q 87.46 190.36 77.02 181.24
  Q 75.61 180.00 74.06 178.92
  Q 73.49 178.52 73.58 177.83
  A 0.43 0.42 6.2 0 1 74.05 177.46
  C 77.43 177.74 80.62 178.34 83.98 178.00
  Q 88.25 177.56 92.50 176.98
  C 98.84 176.13 106.17 173.18 111.86 169.90
  C 128.69 160.20 141.36 143.88 143.48 124.34
  C 144.55 114.47 141.71 104.77 137.42 95.88
  C 137.02 95.05 135.83 93.71 135.69 93.37
  Q 134.08 89.47 137.53 91.91
  Q 138.78 92.79 140.52 93.88
  C 141.86 94.71 143.20 96.16 144.97 96.89
  Q 145.42 97.08 145.67 97.50
  Q 145.80 97.72 145.94 97.94
  Q 146.07 98.15 146.31 98.30
  Z"
/>
<path fill="#666666" d="
  M 852.87 119.92
  A 1.81 1.79 0.1 0 1 851.68 118.74
  C 849.31 111.26 846.27 103.84 838.78 100.15
  C 832.12 96.87 821.61 96.93 816.77 103.50
  Q 814.33 106.80 814.71 111.10
  C 815.28 117.48 818.98 120.78 824.65 124.10
  C 837.89 131.83 858.22 136.77 861.87 153.98
  Q 863.30 160.75 860.68 167.34
  C 855.78 179.60 842.64 184.73 830.25 184.41
  Q 829.62 184.39 827.81 183.92
  C 826.67 183.63 825.52 183.85 824.42 183.62
  C 821.55 183.04 819.17 182.66 815.91 181.82
  C 813.53 181.21 809.20 180.01 807.43 182.38
  A 1.06 1.05 -71.8 0 1 806.61 182.80
  L 803.93 182.85
  A 0.65 0.65 0.0 0 1 803.26 182.20
  L 803.27 152.30
  A 0.26 0.25 -88.9 0 1 803.53 152.04
  L 806.95 152.07
  Q 807.18 152.07 807.21 152.29
  C 809.15 164.89 817.30 176.74 830.84 178.68
  Q 836.04 179.42 839.70 178.06
  C 850.16 174.15 851.05 160.89 843.19 154.07
  Q 839.43 150.81 832.66 147.48
  Q 823.64 143.04 815.05 137.85
  C 809.77 134.66 805.20 129.87 804.03 123.75
  C 803.73 122.21 803.20 120.69 803.21 119.39
  C 803.25 102.45 814.67 92.44 831.00 92.67
  Q 835.57 92.73 847.12 96.15
  C 851.52 97.46 851.02 91.38 855.42 92.85
  Q 855.73 92.96 855.73 93.29
  L 855.73 118.55
  A 1.09 1.09 0.0 0 1 855.41 119.32
  Q 854.33 120.36 852.87 119.92
  Z"
/>
<path fill="#666666" d="
  M 440.33 169.65
  A 0.23 0.22 -21.0 0 0 439.96 169.49
  Q 433.11 175.03 425.71 179.93
  C 421.21 182.91 416.67 183.54 411.12 183.27
  C 402.38 182.85 395.70 176.96 393.36 168.73
  C 392.39 165.31 392.12 158.10 393.34 154.53
  C 396.16 146.25 404.99 140.00 412.91 136.15
  Q 425.97 129.81 439.73 125.15
  Q 440.18 124.99 440.22 124.52
  Q 441.03 116.10 439.16 109.32
  Q 436.53 99.80 427.00 98.76
  C 421.13 98.13 415.42 99.58 412.42 104.78
  C 409.30 110.17 413.71 117.15 408.72 121.78
  Q 406.37 123.96 402.89 123.78
  C 399.02 123.58 396.84 120.99 396.02 117.22
  C 395.81 116.20 395.39 115.67 395.50 114.55
  C 396.62 102.94 407.07 95.05 418.01 93.49
  C 432.26 91.45 454.81 92.80 455.50 112.00
  C 456.14 129.90 455.81 147.82 456.36 165.75
  C 456.46 169.17 458.51 172.77 462.62 171.13
  Q 465.27 170.07 469.70 164.83
  Q 470.76 163.57 470.74 165.21
  L 470.71 168.02
  A 4.07 4.02 67.6 0 1 469.58 170.78
  C 467.74 172.68 466.00 175.07 464.15 176.74
  C 459.82 180.66 455.07 183.69 449.02 182.88
  Q 442.96 182.06 441.38 176.19
  Q 440.50 172.94 440.33 169.65
  Z
  M 416.35 142.09
  C 408.32 147.73 405.24 157.51 410.50 166.25
  Q 414.12 172.27 420.63 172.54
  C 427.17 172.82 434.72 168.01 439.94 163.71
  Q 440.37 163.36 440.37 162.79
  L 440.37 131.28
  Q 440.37 130.76 439.89 130.94
  C 432.05 133.90 423.36 137.17 416.35 142.09
  Z"
/>
<path fill="#666666" d="
  M 599.64 111.75
  Q 599.74 111.69 599.85 111.59
  Q 599.97 111.50 600.05 111.34
  C 605.09 101.69 618.47 85.04 630.68 96.08
  C 636.75 101.57 633.10 112.62 624.08 111.37
  C 618.30 110.57 613.83 101.87 608.05 107.32
  Q 603.71 111.41 600.32 118.26
  Q 599.27 120.38 599.27 122.98
  Q 599.25 140.87 599.26 158.75
  C 599.27 169.04 600.65 178.82 613.89 178.36
  Q 614.50 178.34 614.50 178.96
  L 614.51 181.23
  Q 614.51 181.72 614.02 181.72
  L 569.99 181.73
  Q 569.62 181.73 569.63 181.36
  L 569.71 178.77
  Q 569.72 178.37 570.13 178.38
  C 575.51 178.56 582.21 177.03 583.47 171.28
  Q 583.66 170.40 583.68 164.21
  Q 583.78 139.30 583.52 114.39
  C 583.47 109.00 581.99 104.53 575.52 105.02
  Q 574.04 105.13 571.64 106.12
  Q 570.69 106.51 570.23 105.60
  L 569.61 104.41
  Q 569.00 103.21 570.25 102.71
  Q 582.15 98.00 594.01 93.23
  C 595.68 92.55 597.04 92.62 598.75 92.71
  Q 599.27 92.73 599.27 93.26
  L 599.24 111.52
  A 0.27 0.27 0.0 0 0 599.64 111.75
  Z"
/>
<path fill="#666666" d="
  M 687.64 169.83
  A 0.38 0.38 0.0 0 0 687.03 169.49
  Q 679.86 175.02 672.43 180.16
  C 669.59 182.13 665.20 183.23 661.56 183.34
  Q 644.45 183.86 640.00 167.66
  C 639.20 164.74 639.07 159.16 639.83 156.11
  C 642.43 145.69 653.74 138.79 664.26 134.07
  Q 675.35 129.09 686.81 125.04
  Q 687.21 124.90 687.21 124.47
  L 687.21 115.02
  Q 687.21 114.49 687.01 114.01
  Q 686.65 113.11 686.47 111.27
  Q 685.83 105.00 681.11 101.54
  C 674.87 96.95 662.92 97.44 659.14 105.20
  C 656.86 109.88 659.54 115.75 657.07 119.94
  C 654.70 123.96 649.16 125.29 645.48 122.07
  C 640.42 117.65 642.78 108.50 646.58 103.83
  Q 652.89 96.06 662.71 93.86
  Q 676.72 90.71 688.98 94.83
  Q 702.42 99.34 702.68 113.73
  C 702.97 129.82 702.91 145.90 702.94 162.00
  C 702.95 163.80 703.38 168.40 704.47 169.87
  C 707.93 174.53 714.23 167.76 716.46 165.10
  Q 717.51 163.85 717.50 165.48
  L 717.49 168.97
  Q 717.49 169.41 717.22 169.77
  C 712.25 176.25 702.80 186.27 693.45 182.32
  C 688.61 180.28 687.15 174.68 687.64 169.83
  Z
  M 655.15 160.01
  C 655.97 166.13 660.75 171.58 666.78 172.38
  C 673.52 173.27 681.58 168.13 686.87 163.70
  Q 687.21 163.41 687.21 162.96
  L 687.21 131.02
  A 0.25 0.25 0.0 0 0 686.87 130.79
  C 674.45 135.96 652.73 142.12 655.15 160.01
  Z"
/>
<path fill="#666666" d="
  M 761.64 184.14
  Q 761.52 184.19 761.41 184.26
  Q 761.22 184.36 761.01 184.36
  C 756.87 184.37 753.07 184.35 748.86 183.59
  Q 741.23 182.20 737.75 181.25
  Q 734.16 180.26 731.78 182.47
  Q 731.44 182.78 730.98 182.79
  L 728.55 182.87
  A 0.58 0.57 89.0 0 1 727.96 182.29
  L 727.96 152.51
  A 0.42 0.41 -89.3 0 1 728.37 152.10
  L 731.62 152.11
  A 0.30 0.29 85.4 0 1 731.91 152.36
  C 733.57 163.28 740.81 175.24 751.95 177.96
  C 757.05 179.20 760.84 179.67 765.78 177.27
  Q 770.52 174.97 772.32 170.26
  C 773.05 168.35 772.82 166.36 772.86 164.22
  C 773.01 155.69 763.16 150.20 756.41 146.93
  C 748.43 143.06 740.18 138.88 733.50 133.00
  Q 730.45 130.31 728.94 124.46
  C 727.18 117.69 727.89 111.07 731.47 104.99
  C 737.76 94.31 748.33 91.51 760.13 93.36
  Q 766.14 94.29 769.74 95.56
  Q 774.77 97.33 777.01 93.20
  Q 777.28 92.71 777.83 92.70
  L 779.77 92.69
  Q 780.36 92.68 780.36 93.27
  L 780.35 121.29
  Q 780.35 121.79 779.87 121.93
  Q 777.17 122.70 776.64 120.15
  Q 775.75 115.91 773.21 110.54
  Q 766.92 97.27 752.24 98.06
  Q 746.02 98.39 742.14 102.69
  C 736.71 108.68 739.51 117.58 745.66 121.84
  C 758.22 130.54 783.25 136.19 786.48 153.24
  C 787.29 157.56 786.93 164.85 784.21 169.80
  C 780.19 177.14 771.07 183.28 762.54 183.82
  Q 762.46 183.82 761.64 184.14
  Z"
/>
<path fill="#666666" d="
  M 913.1752 184.4726
  A 46.17 41.63 95.3 0 1 875.9880 134.6546
  A 46.17 41.63 95.3 0 1 921.7048 92.5274
  A 46.17 41.63 95.3 0 1 958.8920 142.3454
  A 46.17 41.63 95.3 0 1 913.1752 184.4726
  Z
  M 929.21 104.81
  C 918.28 93.90 901.59 98.18 896.34 112.26
  C 893.08 121.01 893.47 129.24 893.76 139.25
  Q 894.09 150.75 900.98 164.10
  C 904.88 171.66 911.40 177.75 920.23 177.78
  C 929.49 177.81 936.53 171.72 939.18 162.95
  Q 940.99 156.98 941.41 149.01
  C 942.18 134.52 939.86 115.44 929.21 104.81
  Z"
/>
</svg>
